<svg id="XMLID_67_" xmlns="http://www.w3.org/2000/svg" width="50.317" height="33.279" viewBox="0 0 50.317 33.279">
  <g id="XMLID_307_" transform="translate(0 22.851)">
    <g id="XMLID_323_" transform="translate(42.519 0.093)">
      <path id="XMLID_324_" d="M434.567,218.445H432.6a.317.317,0,0,0-.33.33v7.137a.319.319,0,0,1-.092.238.329.329,0,0,1-.251.093H430.1a.317.317,0,0,1-.33-.33v-7.124a.319.319,0,0,0-.093-.238.329.329,0,0,0-.251-.093h-2a.317.317,0,0,1-.33-.33v-1.8a.317.317,0,0,1,.33-.33h7.124a.329.329,0,0,1,.251.093.318.318,0,0,1,.093.238v1.784a.318.318,0,0,1-.093.238A.283.283,0,0,1,434.567,218.445Z" transform="translate(-427.1 -216)" fill="#f9a719"/>
    </g>
    <path id="XMLID_319_" d="M232.9,217.518a2.419,2.419,0,0,0-.819-1.018,3.685,3.685,0,0,0-1.269-.542,8.268,8.268,0,0,0-1.745-.159h-2.8a.254.254,0,0,0-.264.251v9.741a.26.26,0,0,0,.278.264h1.969a.274.274,0,0,0,.264-.264v-3.436h.885a4.63,4.63,0,0,0,1.48-.238,3.678,3.678,0,0,0,1.229-.661,3.075,3.075,0,0,0,.806-1.031,3.028,3.028,0,0,0,.291-1.361A3.93,3.93,0,0,0,232.9,217.518Zm-2.59,2.379a1.692,1.692,0,0,1-1.071.291h-.727v-2.207h.727a1.78,1.78,0,0,1,1.071.278.945.945,0,0,1,.37.806A1,1,0,0,1,230.309,219.9Z" transform="translate(-210.059 -215.734)" fill="#f9a719"/>
    <path id="XMLID_318_" d="M115.3,215.8c.172,0,.317.119.211.357l-4.679,9.741c-.066.132-.159.264-.291.264H110.4c-.145,0-.225-.145-.291-.264l-4.679-9.754c-.119-.225.04-.344.211-.344h2.115c.145,0,.225.119.33.317l2.405,5.339,2.392-5.339c.106-.211.2-.317.33-.317Z" transform="translate(-105.387 -215.734)" fill="#fff"/>
    <path id="XMLID_317_" d="M194.907,239.7h-1.956a.243.243,0,0,0-.251.251v6.6a.257.257,0,0,0,.264.264h1.956a.262.262,0,0,0,.251-.264v-6.6a.272.272,0,0,0-.264-.251Z" transform="translate(-181.16 -236.475)" fill="#fff"/>
    <path id="XMLID_316_" d="M194.907,215.8h-1.956a.243.243,0,0,0-.251.251v1.837a.257.257,0,0,0,.264.264h1.956a.262.262,0,0,0,.251-.264v-1.837a.272.272,0,0,0-.264-.251Z" transform="translate(-181.16 -215.734)" fill="#f9a719"/>
    <path id="XMLID_311_" d="M294.571,216.487a5.215,5.215,0,0,1,1.89,1.864,5.045,5.045,0,0,1,.7,2.59,4.963,4.963,0,0,1-.7,2.577,5.207,5.207,0,0,1-8.961,0,4.963,4.963,0,0,1-.7-2.577,5.08,5.08,0,0,1,.7-2.59,5.215,5.215,0,0,1,1.89-1.864,5.226,5.226,0,0,1,5.181,0Zm-3.991,1.956a2.871,2.871,0,0,0-1.018,1.084,2.827,2.827,0,0,0-.37,1.414,2.878,2.878,0,0,0,.383,1.414,2.945,2.945,0,0,0,1,1.084,2.555,2.555,0,0,0,2.775,0,3.086,3.086,0,0,0,1.018-1.084,2.887,2.887,0,0,0,0-2.828,3.043,3.043,0,0,0-1-1.084,2.534,2.534,0,0,0-1.388-.41A2.66,2.66,0,0,0,290.58,218.443Z" transform="translate(-262.824 -215.734)" fill="#f9a719"/>
    <path id="XMLID_308_" d="M375.578,217.983a.222.222,0,0,1-.33.04,3.138,3.138,0,0,0-.568-.41,1.728,1.728,0,0,0-.806-.185,1.046,1.046,0,0,0-.634.211.657.657,0,0,0-.317.568q0,.5.674.793c.463.2.938.383,1.414.568a3.217,3.217,0,0,1,1.269.925,2.823,2.823,0,0,1,.529,1.864,3.041,3.041,0,0,1-.952,2.419,3.428,3.428,0,0,1-2.405.846,4.607,4.607,0,0,1-1.639-.291,3.7,3.7,0,0,1-1.242-.74.225.225,0,0,1-.04-.3l1.031-1.467a.217.217,0,0,1,.344-.026,1.942,1.942,0,0,0,1.467.582,1.52,1.52,0,0,0,.78-.225.732.732,0,0,0,.37-.648c0-.33-.225-.608-.687-.806-.2-.093-.436-.185-.7-.3l-.357-.145-.37-.159a3.351,3.351,0,0,1-1.269-.925,2.707,2.707,0,0,1-.529-1.824,2.933,2.933,0,0,1,1.652-2.683,3.409,3.409,0,0,1,1.546-.357,3.951,3.951,0,0,1,1.493.291,4.134,4.134,0,0,1,1.163.7.225.225,0,0,1,.04.3Z" transform="translate(-335.451 -215.3)" fill="#f9a719"/>
  </g>
  <g id="XMLID_68_" transform="translate(5.394)">
    <path id="XMLID_306_" d="M267.2,112.456h14.142L283.1,110.5H268.958c-.634.714-1.229,1.375-1.758,1.956" transform="translate(-251.208 -101.5)" fill="#f7a800"/>
    <path id="XMLID_305_" d="M287.2,90.256h14.142L303.1,88.3H288.958L287.2,90.256" transform="translate(-268.565 -82.234)" fill="#f7a800"/>
    <path id="XMLID_199_" d="M307.2,68.056h14.128l1.758-1.956H308.945c-.529.595-1.123,1.269-1.745,1.956" transform="translate(-285.921 -62.968)" fill="#f7a800"/>
    <path id="XMLID_72_" d="M342.352,42.4H329.677a1.431,1.431,0,0,0-1.084.5L327.1,44.568h14.128l1.4-1.56a.365.365,0,0,0-.278-.608" transform="translate(-303.191 -42.4)" fill="#f7a800"/>
    <path id="XMLID_69_" d="M158.359,89.72a.279.279,0,0,1-.278.278.211.211,0,0,1-.159-.053l-6.806-4.52a.282.282,0,0,1-.106-.225.279.279,0,0,1,.278-.278h6.78a.279.279,0,0,1,.278.278v4.52Zm2.868-2.842V85.147a.77.77,0,0,0-.317-.634l-6.754-4.48a.711.711,0,0,0-.436-.132.808.808,0,0,0-.436.132l-6.767,4.494a.793.793,0,0,0,0,1.269L157,92.826a1.874,1.874,0,0,0,1.031.33h10.785a2.351,2.351,0,0,0,1.652-.714l5-5.551H161.227Z" transform="translate(-146.2 -74.944)" fill="#fff"/>
  </g>
</svg>
